<svg xmlns="http://www.w3.org/2000/svg" viewBox="0 0 25 31.25" x="0px" y="0px"><g><path d="M17.233,12.5l2.506-2.505a2.5,2.5,0,0,0,0-3.536l-1.2-1.2a2.5,2.5,0,0,0-3.536,0L12.5,7.767,9.995,5.261a2.5,2.5,0,0,0-3.536,0l-1.2,1.2a2.5,2.5,0,0,0,0,3.536L7.767,12.5,5.261,15.005a2.5,2.5,0,0,0,0,3.536l1.2,1.2a2.5,2.5,0,0,0,3.536,0L12.5,17.233l2.505,2.506a2.5,2.5,0,0,0,3.536,0l1.2-1.2a2.5,2.5,0,0,0,0-3.536Zm1.8,5.334-1.2,1.2a1.5,1.5,0,0,1-2.122,0l-2.858-2.859a.5.5,0,0,0-.708,0L9.288,19.032a1.5,1.5,0,0,1-2.122,0l-1.2-1.2a1.5,1.5,0,0,1,0-2.122l2.859-2.858a.5.5,0,0,0,0-.708L5.968,9.288a1.5,1.5,0,0,1,0-2.122l1.2-1.2a1.5,1.5,0,0,1,2.122,0l2.858,2.859a.5.5,0,0,0,.708,0l2.858-2.859a1.5,1.5,0,0,1,2.122,0l1.2,1.2a1.5,1.5,0,0,1,0,2.122l-2.859,2.858a.5.5,0,0,0,0,.708l2.859,2.858A1.5,1.5,0,0,1,19.032,17.834Z" stroke-width="0"/></g></svg>